<svg id="visual" viewBox="0 0 900 600" width="900" height="600" xmlns="http://www.w3.org/2000/svg" xmlns:xlink="http://www.w3.org/1999/xlink" version="1.1"><rect x="0" y="0" width="900" height="600" fill="#f0f8ff"></rect><defs><linearGradient id="grad1_0" x1="33.3%" y1="0%" x2="100%" y2="100%"><stop offset="20%" stop-color="#f0f8ff" stop-opacity="1"></stop><stop offset="80%" stop-color="#f0f8ff" stop-opacity="1"></stop></linearGradient></defs><defs><linearGradient id="grad2_0" x1="0%" y1="0%" x2="66.7%" y2="100%"><stop offset="20%" stop-color="#f0f8ff" stop-opacity="1"></stop><stop offset="80%" stop-color="#f0f8ff" stop-opacity="1"></stop></linearGradient></defs><g transform="translate(900, 0)"><path d="M0 135.2C-9.5 129 -19 122.8 -26.7 117C-34.4 111.1 -40.2 105.7 -50.8 105.4C-61.4 105.2 -76.8 110.2 -84.3 105.7C-91.8 101.2 -91.6 87.2 -98.5 78.6C-105.5 69.9 -119.7 66.5 -119.8 57.7C-120 48.9 -106 34.8 -106.3 24.3C-106.5 13.7 -120.8 6.9 -135.2 0L0 0Z" fill="#00bb3e"></path></g><g transform="translate(0, 600)"><path d="M0 -135.2C9.7 -131.8 19.4 -128.4 28.5 -124.8C37.6 -121.2 46.1 -117.5 54.7 -113.5C63.3 -109.5 71.9 -105.2 79.8 -100.1C87.7 -94.9 94.7 -88.9 103.2 -82.3C111.7 -75.7 121.6 -68.6 121.8 -58.7C122 -48.7 112.5 -36.1 113.1 -25.8C113.7 -15.6 124.5 -7.8 135.2 0L0 0Z" fill="#00bb3e"></path></g></svg>