<svg id="visual" viewBox="0 0 900 600" width="900" height="600" xmlns="http://www.w3.org/2000/svg" xmlns:xlink="http://www.w3.org/1999/xlink" version="1.1"><path d="M0 55L13.7 52C27.3 49 54.7 43 82 43C109.3 43 136.7 49 163.8 56C191 63 218 71 245.2 76C272.3 81 299.7 83 327 83C354.3 83 381.7 81 409 82C436.3 83 463.7 87 491 86C518.3 85 545.7 79 573 78C600.3 77 627.7 81 654.8 84C682 87 709 89 736.2 91C763.3 93 790.7 95 818 94C845.3 93 872.7 89 886.3 87L900 85L900 0L886.3 0C872.7 0 845.3 0 818 0C790.7 0 763.3 0 736.2 0C709 0 682 0 654.8 0C627.7 0 600.3 0 573 0C545.7 0 518.3 0 491 0C463.7 0 436.3 0 409 0C381.7 0 354.3 0 327 0C299.7 0 272.3 0 245.2 0C218 0 191 0 163.8 0C136.7 0 109.3 0 82 0C54.7 0 27.3 0 13.7 0L0 0Z" fill="#6198ff"></path><path d="M0 145L13.7 154C27.3 163 54.7 181 82 203C109.3 225 136.7 251 163.8 260C191 269 218 261 245.2 250C272.3 239 299.7 225 327 227C354.3 229 381.7 247 409 269C436.3 291 463.7 317 491 300C518.3 283 545.7 223 573 206C600.3 189 627.7 215 654.8 221C682 227 709 213 736.2 221C763.3 229 790.7 259 818 266C845.3 273 872.7 257 886.3 249L900 241L900 83L886.3 85C872.7 87 845.3 91 818 92C790.7 93 763.3 91 736.2 89C709 87 682 85 654.8 82C627.7 79 600.3 75 573 76C545.7 77 518.3 83 491 84C463.7 85 436.3 81 409 80C381.7 79 354.3 81 327 81C299.7 81 272.3 79 245.2 74C218 69 191 61 163.8 54C136.7 47 109.3 41 82 41C54.7 41 27.3 47 13.7 50L0 53Z" fill="#3c80ff"></path><path d="M0 331L13.7 342C27.3 353 54.7 375 82 383C109.3 391 136.7 385 163.8 386C191 387 218 395 245.2 413C272.3 431 299.7 459 327 473C354.3 487 381.7 487 409 479C436.3 471 463.7 455 491 439C518.3 423 545.7 407 573 402C600.3 397 627.7 403 654.8 415C682 427 709 445 736.2 447C763.3 449 790.7 435 818 431C845.3 427 872.7 433 886.3 436L900 439L900 239L886.3 247C872.7 255 845.3 271 818 264C790.7 257 763.3 227 736.2 219C709 211 682 225 654.8 219C627.7 213 600.3 187 573 204C545.7 221 518.3 281 491 298C463.7 315 436.3 289 409 267C381.7 245 354.3 227 327 225C299.7 223 272.3 237 245.2 248C218 259 191 267 163.8 258C136.7 249 109.3 223 82 201C54.7 179 27.3 161 13.7 152L0 143Z" fill="#0066ff"></path><path d="M0 451L13.7 462C27.3 473 54.7 495 82 503C109.3 511 136.7 505 163.8 501C191 497 218 495 245.2 502C272.3 509 299.7 525 327 532C354.3 539 381.7 537 409 537C436.3 537 463.7 539 491 522C518.3 505 545.7 469 573 454C600.3 439 627.7 445 654.8 464C682 483 709 515 736.2 527C763.3 539 790.7 531 818 521C845.3 511 872.7 499 886.3 493L900 487L900 437L886.3 434C872.7 431 845.3 425 818 429C790.7 433 763.3 447 736.2 445C709 443 682 425 654.8 413C627.7 401 600.3 395 573 400C545.7 405 518.3 421 491 437C463.7 453 436.3 469 409 477C381.7 485 354.3 485 327 471C299.7 457 272.3 429 245.2 411C218 393 191 385 163.8 384C136.7 383 109.3 389 82 381C54.7 373 27.3 351 13.7 340L0 329Z" fill="#0059dd"></path><path d="M0 601L13.7 601C27.3 601 54.7 601 82 601C109.3 601 136.7 601 163.8 601C191 601 218 601 245.2 601C272.3 601 299.7 601 327 601C354.3 601 381.7 601 409 601C436.3 601 463.7 601 491 601C518.3 601 545.7 601 573 601C600.3 601 627.7 601 654.8 601C682 601 709 601 736.2 601C763.3 601 790.7 601 818 601C845.3 601 872.7 601 886.3 601L900 601L900 485L886.3 491C872.7 497 845.3 509 818 519C790.7 529 763.3 537 736.2 525C709 513 682 481 654.8 462C627.7 443 600.3 437 573 452C545.7 467 518.3 503 491 520C463.7 537 436.3 535 409 535C381.7 535 354.3 537 327 530C299.7 523 272.3 507 245.2 500C218 493 191 495 163.8 499C136.7 503 109.3 509 82 501C54.7 493 27.3 471 13.7 460L0 449Z" fill="#004cbb"></path></svg>