<svg id="visual" viewBox="0 0 900 600" width="900" height="600" xmlns="http://www.w3.org/2000/svg" xmlns:xlink="http://www.w3.org/1999/xlink" version="1.1"><rect x="0" y="0" width="900" height="600" fill="#fff"></rect><defs><linearGradient id="grad1_0" x1="33.3%" y1="0%" x2="100%" y2="100%"><stop offset="20%" stop-color="#ffffff" stop-opacity="1"></stop><stop offset="80%" stop-color="#ffffff" stop-opacity="1"></stop></linearGradient></defs><defs><linearGradient id="grad2_0" x1="0%" y1="0%" x2="66.7%" y2="100%"><stop offset="20%" stop-color="#ffffff" stop-opacity="1"></stop><stop offset="80%" stop-color="#ffffff" stop-opacity="1"></stop></linearGradient></defs><g transform="translate(900, 0)"><path d="M0 243.4C-20.3 247.3 -40.6 251.3 -54.2 237.3C-67.7 223.3 -74.4 191.3 -83.3 173C-92.2 154.7 -103.1 150.1 -114.1 143.1C-125.1 136.1 -136 126.8 -146.2 116.6C-156.4 106.4 -165.9 95.4 -173.9 83.7C-181.9 72.1 -188.5 59.7 -199.9 45.6C-211.2 31.5 -227.3 15.8 -243.4 0L0 0Z" fill="#228722"></path></g><g transform="translate(0, 600)"><path d="M0 -243.4C12.7 -219 25.4 -194.6 44.5 -195C63.7 -195.3 89.3 -220.4 105.6 -219.3C121.9 -218.1 129 -190.6 136.5 -171.2C144.1 -151.8 152.3 -140.4 161.1 -128.4C169.9 -116.5 179.3 -104 189.2 -91.1C199.1 -78.3 209.3 -65.1 218.4 -49.8C227.5 -34.6 235.4 -17.3 243.4 0L0 0Z" fill="#228722"></path></g></svg>